<svg width="80" height="80" viewBox="0 0 80 80" fill="none" xmlns="http://www.w3.org/2000/svg">
<rect width="80" height="80" fill="#FF0000"/>
<path d="M29.2 69H37.84L28.56 13H17.2L7.92 69H16.4L18.24 56.6H27.36L29.2 69ZM19.36 48.44L22.8 25L26.24 48.44H19.36ZM56.8719 69.8C64.7919 69.8 70.1519 64.36 70.1519 56.52V48.52H61.8319V56.52C61.8319 59.8 59.8319 61.8 56.9519 61.8C54.0719 61.8 52.0719 59.8 52.0719 56.52V25.48C52.0719 22.2 54.0719 20.2 56.9519 20.2C59.8319 20.2 61.8319 22.2 61.8319 25.48V32.04H70.1519V25.48C70.1519 17.64 64.7919 12.2 56.8719 12.2C48.9519 12.2 43.5919 17.64 43.5919 25.48V56.52C43.5919 64.36 48.9519 69.8 56.8719 69.8Z" fill="white"/>
</svg>
